<?xml version="1.0" encoding="utf-8"?>
<!-- Generator: Adobe Illustrator 26.0.1, SVG Export Plug-In . SVG Version: 6.00 Build 0)  -->
<svg version="1.1" id="Calque_1" xmlns="http://www.w3.org/2000/svg" xmlns:xlink="http://www.w3.org/1999/xlink" x="0px" y="0px"
	 viewBox="0 0 160 60" style="enable-background:new 0 0 160 60;" xml:space="preserve">
<style type="text/css">
	.st0{fill:#BF2428;}
</style>
<g>
	<g>
		<path class="st0" d="M48.1,17c0.7,0,1.6,0.1,2.1,0.6c0.9,0.7,1.1,1.9,0.9,3.2c-0.5,2.3-2.6,4.4-5.1,4.7l1.7-8.4H48.1z M46,27.4
			l2.8,8.2c0.8,2.3,1.2,2.3,1.3,2.3h8.5c-1.3-1.2-1.9-3-2.6-4.7l-3.1-7.4c2.7-1,5.1-3.1,5.7-5.9c0.5-2.5-0.3-4.4-2.2-5.7
			c-1.6-0.9-3.1-0.8-4.9-0.8H40.1v0.1c1.7,1.1,0.9,3.2,0.6,5.2l-2.8,13.9c-0.4,1.9-0.6,4.1-2.7,5.2v0.1h10.2v-0.1
			c-1.7-1.1-0.9-3.2-0.6-5.2L46,27.4z"/>
		<path class="st0" d="M71.7,18.7c0.4-1.9,0.6-4.1,2.7-5.2v-0.1H64.2v0.1c1.7,1.1,0.9,3.2,0.6,5.2L62,32.6c-0.4,1.9-0.6,4-2.6,5.2
			v0.1h10.2v-0.1c-1.7-1.1-0.9-3.2-0.6-5.2L71.7,18.7z"/>
		<path class="st0" d="M90.3,24.6l10.2-11.1v-0.1h-8.3v0.1c0.7,0.3,1.2,1.2,1,1.9c-0.2,1-1.1,2.1-1.9,3l-2.5,2.9L86,13.5v-0.1h-8.9
			v0.1c1.3,0.8,1.8,2,2.3,3.5l3.2,8.1L71,37.8v0.1h8.4v-0.1c-0.6-0.6-0.8-1.5-0.6-2.5c0.2-0.8,0.8-1.5,1.3-2.1l4.1-4.8l3.5,9.5v0.1
			h8.9l0,0v-0.1c-1.5-1.4-2.2-3.4-3.1-5.4L90.3,24.6z"/>
		<path class="st0" d="M104.1,24.6c0.7-3.8,3.6-8.1,8.1-8.1c5.2,0,5.7,6.1,4.8,10.3c-0.4,1.9-1,3.7-2.4,5.2
			c-1.6,1.6-3.5,2.6-5.6,2.6c-2.1,0-3.8-1.4-4.4-3.2C103.8,29.6,103.6,26.8,104.1,24.6 M96.5,25.6c-1.6,7.9,3.5,12.8,11.3,12.8
			c7.7,0,15.3-4.7,16.9-12.9c1.7-8.2-3.3-12.8-11.3-12.8C105.6,12.8,98,17.7,96.5,25.6"/>
		<path class="st0" d="M150,18.9c0.5-2.1,0.8-3.8,2.8-5.4v-0.1h-7.3v0.1c1.3,1.6,1,3.2,0.6,5.4l-1.9,9.6l-8.7-15v-0.1h-7.9v0.1
			c1.6,2.2,1.6,3.2,1,6.1L126,32.5c-0.5,2.1-0.8,3.8-2.8,5.3v0.1h7.3v-0.1c-1.3-1.5-1-3.2-0.6-5.3l1.9-9.8h0.1l5.4,9.5
			c1.4,2.5,3.3,5.7,3.3,5.7h5.5L150,18.9z"/>
		<path class="st0" d="M9.9,37c3,1.2,6.3,1.9,9.8,1.9c3.7,0,7.1-0.5,10.7-2.7c3.2-2,5.2-5,5.8-8.3c0.6-3.2-0.3-5.6-2.3-7.7
			c-1.8-1.8-3.9-2.8-6.2-3.8c-1.8-0.8-4.6-1.8-4.2-4.3c0.5-2.4,3.2-3.2,5.2-3.2c2.6,0,5,1,6.9,2.4l1.2-6c-2.5-1-5.6-1.6-8.5-1.6
			c-3.2,0.1-6.6,0.6-9.6,2.5c-2.8,1.7-4.8,4.5-5.4,7.4c-2.3,11.5,14,10.2,12.7,16.4c-0.6,2.9-3.9,3.6-6.3,3.6c-3.8,0-7.8-1.7-10.2-4
			L9.9,37z"/>
		<path class="st0" d="M39,42l-2.2,5.6c-12-1.2-29.3,0.2-34.5,5.9L6,42.1C16,41,26.1,40.4,39,42"/>
	</g>
	<path class="st0" d="M155.7,15.6c0.4,0,0.7,0,0.8-0.5c0.1-0.4-0.3-0.5-0.6-0.5h-0.6l-0.2,0.9H155.7z M154.8,17.2h-0.5l0.6-2.9h1.1
		c0.6,0,1,0.3,0.8,0.8c-0.1,0.6-0.5,0.7-0.9,0.8l0.6,1.3h-0.5l-0.5-1.3h-0.5L154.8,17.2z M155.2,17.9c1.1,0,2.2-0.9,2.5-2.1
		s-0.5-2.1-1.6-2.1s-2.2,0.9-2.5,2.1C153.3,16.9,154,17.9,155.2,17.9 M153.1,15.7c0.3-1.5,1.7-2.5,3.1-2.5s2.3,1.1,2,2.5
		c-0.3,1.5-1.8,2.5-3.1,2.5C153.7,18.2,152.7,17.2,153.1,15.7"/>
</g>
<g>
	<path class="st0" d="M83.9,49.9h-2.8l-0.3,1.9h2.6l-0.2,1.4h-2.6L80.2,55h2.9l-0.2,1.4h-4.6l1.4-7.8h4.4L83.9,49.9z"/>
	<path class="st0" d="M91.2,53c-0.1,0.5-0.3,1-0.5,1.5c-0.2,0.4-0.5,0.8-0.8,1.1s-0.7,0.5-1.1,0.7c-0.4,0.2-0.9,0.2-1.4,0.2
		c-0.5,0-0.9-0.1-1.3-0.2c-0.4-0.1-0.7-0.4-1-0.7c-0.3-0.3-0.4-0.7-0.5-1.1c-0.1-0.4-0.1-0.9,0-1.5l0.8-4.5h1.7l-0.8,4.6
		c-0.1,0.3-0.1,0.6,0,0.8c0,0.2,0.1,0.4,0.2,0.6c0.1,0.2,0.3,0.3,0.5,0.4c0.2,0.1,0.4,0.1,0.6,0.1c0.2,0,0.5,0,0.7-0.1
		c0.2-0.1,0.4-0.2,0.5-0.3c0.2-0.1,0.3-0.3,0.4-0.6c0.1-0.2,0.2-0.6,0.3-0.9l0.8-4.6H92L91.2,53z"/>
	<path class="st0" d="M98.1,51.5c-0.1,0.3-0.3,0.6-0.5,0.8c-0.2,0.2-0.5,0.4-0.7,0.5c-0.3,0.1-0.6,0.2-0.8,0.3l1.8,3.3h-1.9
		l-1.8-3.3l-0.6,3.3h-1.6l1.4-7.8H96c0.4,0,0.7,0.1,1,0.2c0.3,0.1,0.5,0.2,0.7,0.4c0.2,0.2,0.3,0.4,0.4,0.6c0.1,0.2,0.1,0.5,0.1,0.7
		C98.3,50.9,98.2,51.2,98.1,51.5z M96.4,50.1c-0.2-0.2-0.5-0.3-0.9-0.3h-0.8l-0.4,2.2h0.8c0.5,0,0.8-0.1,1.1-0.4
		c0.3-0.3,0.4-0.6,0.4-1C96.6,50.5,96.6,50.3,96.4,50.1z"/>
	<path class="st0" d="M106.4,53.7c-0.3,0.6-0.6,1.1-1,1.5c-0.4,0.4-0.9,0.7-1.5,1c-0.6,0.2-1.1,0.4-1.7,0.4c-0.5,0-1-0.1-1.4-0.2
		c-0.4-0.2-0.8-0.4-1.1-0.7c-0.3-0.3-0.6-0.7-0.7-1.1c-0.2-0.4-0.3-0.9-0.3-1.4c0-0.7,0.1-1.3,0.4-1.9c0.3-0.6,0.6-1.1,1-1.5
		c0.4-0.4,0.9-0.7,1.5-1c0.6-0.2,1.2-0.3,1.8-0.3c0.5,0,1,0.1,1.5,0.3c0.4,0.2,0.8,0.4,1.1,0.7c0.3,0.3,0.5,0.7,0.7,1.1
		c0.2,0.4,0.2,0.8,0.2,1.3C106.8,52.5,106.7,53.1,106.4,53.7z M105,51.1c-0.1-0.3-0.2-0.5-0.4-0.7c-0.2-0.2-0.4-0.3-0.6-0.4
		c-0.3-0.1-0.6-0.2-0.9-0.2c-0.4,0-0.8,0.1-1.1,0.3c-0.3,0.2-0.6,0.4-0.9,0.7c-0.2,0.3-0.4,0.6-0.5,1s-0.2,0.7-0.2,1.1
		c0,0.6,0.2,1.2,0.5,1.6c0.4,0.4,0.9,0.6,1.5,0.6c0.4,0,0.7-0.1,1.1-0.3c0.3-0.2,0.6-0.4,0.9-0.7c0.2-0.3,0.4-0.6,0.6-1
		c0.1-0.4,0.2-0.8,0.2-1.2C105.1,51.7,105.1,51.4,105,51.1z"/>
	<path class="st0" d="M113.2,51.7c-0.2,0.4-0.4,0.7-0.7,0.9c-0.3,0.3-0.6,0.5-1,0.6c-0.4,0.1-0.8,0.2-1.2,0.2h-1l-0.5,2.9h-1.7
		l1.4-7.8h2.7c0.4,0,0.7,0.1,1,0.2c0.3,0.1,0.5,0.2,0.7,0.4c0.2,0.2,0.3,0.4,0.4,0.6c0.1,0.2,0.1,0.5,0.1,0.8
		C113.5,51,113.4,51.4,113.2,51.7z M111.5,50.1c-0.2-0.1-0.5-0.2-0.9-0.2h-0.8l-0.4,2.2h0.8c0.2,0,0.4,0,0.6-0.1
		c0.2-0.1,0.3-0.2,0.5-0.3c0.1-0.1,0.2-0.3,0.3-0.4c0.1-0.2,0.1-0.4,0.1-0.6C111.8,50.5,111.7,50.3,111.5,50.1z"/>
	<path class="st0" d="M118.9,49.9h-2.8l-0.3,1.9h2.6l-0.2,1.4h-2.6l-0.3,1.8h2.9l-0.2,1.4h-4.6l1.4-7.8h4.4L118.9,49.9z"/>
	<path class="st0" d="M128,54.6c-0.2,0.2-0.4,0.3-0.6,0.5l0.8,1.3h-1.7l-0.3-0.5c-0.3,0.2-0.7,0.3-1.1,0.4c-0.4,0.1-0.7,0.2-1.1,0.2
		c-0.3,0-0.7,0-0.9-0.1c-0.3-0.1-0.5-0.2-0.7-0.4c-0.2-0.2-0.3-0.4-0.5-0.6s-0.2-0.5-0.2-0.7c0-0.3,0.1-0.6,0.2-0.9
		c0.1-0.3,0.3-0.5,0.5-0.7c0.2-0.2,0.4-0.4,0.6-0.6c0.2-0.2,0.5-0.3,0.7-0.4l-0.1-0.1c-0.1-0.2-0.3-0.5-0.4-0.7
		c-0.1-0.2-0.1-0.5-0.1-0.7c0-0.3,0.1-0.6,0.2-0.9s0.3-0.5,0.5-0.7c0.2-0.2,0.5-0.3,0.8-0.4c0.3-0.1,0.6-0.2,0.9-0.2
		c0.3,0,0.5,0,0.7,0.1s0.4,0.2,0.6,0.3c0.2,0.1,0.3,0.3,0.4,0.5c0.1,0.2,0.1,0.4,0.1,0.7c0,0.3,0,0.5-0.1,0.7
		c-0.1,0.2-0.2,0.4-0.4,0.6c-0.2,0.2-0.4,0.4-0.6,0.5c-0.2,0.2-0.5,0.3-0.7,0.4l1.1,1.7c0.2-0.1,0.3-0.3,0.5-0.4
		c0.2-0.2,0.3-0.3,0.5-0.5l0.8,1C128.4,54.3,128.2,54.4,128,54.6z M124.4,53c-0.3,0.2-0.5,0.4-0.7,0.6c-0.2,0.2-0.3,0.5-0.3,0.7
		c0,0.2,0.1,0.5,0.3,0.6c0.2,0.2,0.4,0.2,0.8,0.2c0.2,0,0.4,0,0.5-0.1c0.2-0.1,0.4-0.1,0.6-0.3L124.4,53z M125.5,49.5
		c-0.1,0-0.2,0-0.3,0.1c-0.1,0-0.2,0.1-0.3,0.2c-0.1,0.1-0.1,0.2-0.2,0.3c-0.1,0.1-0.1,0.2-0.1,0.4c0,0.2,0,0.3,0.1,0.5
		c0.1,0.1,0.1,0.3,0.3,0.5l0.1,0.1c0.3-0.2,0.5-0.4,0.7-0.6c0.2-0.2,0.3-0.5,0.3-0.7C126.1,49.7,125.9,49.5,125.5,49.5z"/>
	<path class="st0" d="M138.5,53c-0.1,0.5-0.3,1-0.5,1.5c-0.2,0.4-0.5,0.8-0.8,1.1c-0.3,0.3-0.7,0.5-1.1,0.7
		c-0.4,0.2-0.9,0.2-1.4,0.2c-0.5,0-0.9-0.1-1.3-0.2c-0.4-0.1-0.7-0.4-1-0.7c-0.3-0.3-0.4-0.7-0.5-1.1c-0.1-0.4-0.1-0.9,0-1.5
		l0.8-4.5h1.7l-0.8,4.6c-0.1,0.3-0.1,0.6,0,0.8c0,0.2,0.1,0.4,0.2,0.6c0.1,0.2,0.3,0.3,0.5,0.4c0.2,0.1,0.4,0.1,0.6,0.1
		c0.2,0,0.5,0,0.7-0.1c0.2-0.1,0.4-0.2,0.5-0.3c0.2-0.1,0.3-0.3,0.4-0.6s0.2-0.6,0.3-0.9l0.8-4.6h1.7L138.5,53z"/>
	<path class="st0" d="M143.3,51.8l2.4,4.5h-1.9L142,53l-0.5,0.5l-0.5,2.9h-1.7l1.4-7.8h1.7l-0.5,2.8l2.8-2.8h2L143.3,51.8z"/>
</g>
</svg>
